<svg xmlns="http://www.w3.org/2000/svg" viewBox="0 0 1280 1010.12"><defs><style>.cls-1{fill:#5b5b5b;}</style></defs><title>footer-bg</title><g id="Layer_2" data-name="Layer 2"><g id="Layer_1-2" data-name="Layer 1"><path class="cls-1" d="M1279.15,172.85c-.65-.09-1.4-.44-2-.24-3.45,1.27-4.51-1.86-4.34-3.48.3-2.75-.29-5.47.16-8.14.16-.94.08-1.83-.7-1.88-3.51-.24-6.94-1.86-10.42-1.2-4,.77-4.83.82-7.23-1.67-.35-.36-1-.4-1.45-.72-2.58-1.83-4.62,1.38-7.11.7-4.46-1.22-6.1,3.14-8.76,3.2-3.52.07-7.14,2.48-10.57-.4a1.31,1.31,0,0,0-1-.09c-5,1-6.23.73-10.23-2.41-.83-.66-2.45-.66-2.76,0-2.1,4.26-40.16,2.94-53.17,6.18-5.53,1.38-2.58-2.65-6.58-1-.77.32-.67,1.27-.43,1.74,1.49,2.94.51,6.06.86,9.07.5,4.38-4.33.6-4.54,3.8-.61,9.31-.38,59.76-.37,63.13,0,4.69-4.5,13.74-5.64,9.71-.26-.93.09-2,0-2.9-.41-2.78,2.35-4.75.74-8.31-1.88-4.16-1.33-9.44-1.67-14.24-.09-1.2-.48-2.61.89-3.64s-.76-1.42-.85-6.56c0-.67-.81-43.55-1.34-65.41-1.69-68.91,7.84-57.95-10.69-62.52-1.18-.29-2.33-.62-2.09-2.35.27-2.06-1.76-2.06-2.24-1.32-1.59,2.48-3.23.17-3.39-.31-.54-1.56-1.77-.91-2.59-1.37-5.89-3.32-10.27,1.43-23.78,1.34-2.89,0-5.26-.09-3.14,4.37-4.67-1.45-8.2,1.59-12.31,1.17-1.31-.13-2.93,1.15-1.82,3.26s1.16,138.5.92,142.76c-.17,2.94.73,5.38-3.29,6.81-5.52,1.95-7.59-3-6-4.62,3.18-3.16-.79-5.54-1-8.41,0,0,.26-32.4.26-32.51-.47-10.86-4.56-10.77-5.79-20.12-.53-4-3.52-7.15-5.68-10.55-1-1.6-2.71-.18-3.53-1.59a32.65,32.65,0,0,1-4.47-11.89c-.47-3.54-2.32-6.9-1.54-10.64.33-1.61-2.32-2.22-2.55,0-.48,4.81.92,8.38-.37,10.55-12.23,20.45-15.31,24.73-17.26,32.26-.29,1.1.89,2.34-.21,2.88-3,1.47-2.84,3.9-2.22,39.57.12,7,0,6.76-7,6.35-5.88-.34-1.09-5.8-3-16.08-.71-3.85,1.07-7.2.38-11.22-1.54-9,.52-18.34-.25-27.57-3.13-37.66,1.6-44.53-4.65-43.47-3.63.61-2.81-.73-2.74-17.34.08-20.31.67-18.51-.46-20.5-3,2.7-2.21-4-2.21,37.84-7.32,0-8.71.67-7.61,3.85.33.95-.5,2.26-2.19,2.18-12.39-.53-12.87-.05-12.84,4.71.46,88.39,1.39,82.27-1.77,82-3.71-.26-7.48.3-11.23.5-8.74.47-1.44,7.76-7,7.32-16.76-1.35-19.52-1.3-19.73-2.43-.39-2.15-2-1.82-3.31-1.7-2.6.23-5.64-.85-7.48,2.22-.24.4-1.2.56-1.82.54a62.2,62.2,0,0,0-7.23.61c-3.24.24-2.44-.71-2.24,23.75,0,.71.12,1.42-.56,1.94-1.39-2.32-18.07-20.13-19.91-22.06-1-1.1-2.35-4.12-4.78-1.23-.08.11-.86-.15-1.09-.42-1.48-1.77-2.72-2-9,8.93-2.59,4.53-6.18,8.41-8.37,13.19-.38.82-.39,2.26-1.68,2.18-2.14-.14.66-2.32-2-2.89-6-1.27-6.69,0-7.34-1.88-1-2.74-3.48-3.35-5.86-4.1-3.71-1.15-6.57,2.25-10.15,1.94-1.5-.13-3.31.82-3.12-2.29a28.77,28.77,0,0,0,.17-6.13c-2.11-12.86,4.82-26.81-1.72-26.09-1.1.12-9.22,3.59-14.19-.29-2.43-1.9-3.25-1.26-4.36.84-1.22,2.32-3.3,2.79-5.24,1.54-2.73-1.76-3.49-.14-2.21,2,3.21,5.33-2.25,5.21-6.29,5.18-7.36-.06,2.36,9.27-6.76,7.83-28.11-4.41-31.23-.79-43-.61-4.93.07,2.33,5.35-3.55,10.32-4,3.33-2.23,9.26-5.74,12.87-.28.29.19,1.32.33,2.11-1.19-.2-2.51.85-2.89-1.28a42.3,42.3,0,0,1-.21-16.17c.12-.62.56-1.09-.21-1.69-7.51-5.79-3.91-5.61-14.26-5.3-2.93.08-4.45-.26-4.15-3.8.73-8.55-6.61-2.29-13.57-5.56-2.09-1-3.93,1-6.34.9-5.16-.27-10.43.22-15.65.38-3.48.11-4.82,1.34-4.86,4.87-.2,16,1.25,16.56-3.2,16.51-2.2,0-1.61,6.32-1.56-80.44,0-6.65-6.83,1.73-5.93-7.84.53-5.67-1.5-6.24-3.34-5.12-2.45,1.49-4.53,1.3-22.34,4.11-1.38.22-2.49.16-3.15-2.31-1.5,5.73-1.22-1.26-1.17,30.29,0,15.56,1.18,18.15-4.06,17.73,5.22.71,6.33-.59,6.6,1,.24,1.46-1,1.16-1.8,1.18-2.12,0-1.85,2.88-.07,2.66,2.91-.37,1.63,2.13,2,5.13.28,2.52-.57,3.57-3.19,2.56.68-2.12,1.14-5.31-1.2-5-1.57.22-.37,1.06-.41,1.66-.12,1.79.82,3.77-1,5.45,1-4.59-3.8-5.36-5.27-8.29-.22-.44-1.54-.44-1.62.78,0,.89,0,1.78,0,2.67s-1.59,1.25-1.34-.1c.61-3.24-.82-3.42-3.74-3.4s-2.75.52-1.84,2.63c.67,1.54-1.23,3.54-2.86,3.46a175.64,175.64,0,0,1-23.32-2.91c-2.76-.52-6.14-.33-5.61-4.87.18-1.58-1.66-1.4-2.11-.87-1.58,1.83-3.42.6-5.1.89-3.21.54-5.91-1.94-9.06-1.13-2.44.62-4.42.08-5.61-2.69-.84,1.15-.62,2.38-2,3-2.26.91-5.67-.52-6.75,3,0,.1-.63.06-1,0-7.45-.42-14.76,1.17-22.17,1.43-2,.08-4.94-.67-5.69,2.86-.17.84-1.9.55-2.56-.27-10.65-13.35-9.91-14.28-13-14-8,.64-1-3.35-9.36-3.28-3,0-2-.26-2.06-21.32,0-4.76-12.61-3.75-17.25-3.22-3.56.41-7.31-1-10.7,1.11-1,.62-8.76-4.35-15.41,2.16-.5.49-.68.52-1.25.07-2.63-2-5.12-.06-7.7.34s-6.12-.6-5.28,4.14c0,.11-.27.39-.42.4-4.48.24-.2,4.36-1.33,58.09-.1,4.64.48,8.37-1.45,7.78-1.75-.53-5.86,1.63-5.87-.63,0-5.1-1-10.49.31-15.2,1.12-3.94-1.54-3.05-2.72-3.5-2.77-1.08-7.28,1-6.9-1.69.26-1.91.52-2.54-16-3.2-8.17-.32-6.83-.18-6.07-33.12.11-4.8-3.6-3-8.79-4.14-6-1.36-12.2-.18-18.34-2.44-13.78-5.06-14.37-.14-16.21-4.15-1.11-2.41-3.49-2.43-4.42.05-1.44,3.83-3.35-.45-7.39,1.8-2.89,1.6-16.28,2.83-20.64,3.26-2.42.24-2.49-1.19-2.69,23.36-.36,43.4.59,40.57-.82,41.12-3.24,1.27-3.57-6.7-8.73-5.29-.24.07-2.18-3.56-1.88-6.28.69-6.32-3.07-.48-4.81-1.62-3.52-2.29-6.87-1.7-10.25.72-.82-6.92,1.56-9.83-2.69-12.37-.28-.16-.18-5.59-.17-5.92.11-3.64-1.87-1.41-10.29-3-2.69-.51-4.42,1.71-6.82,2.07a50.77,50.77,0,0,1-9.82.95c-3.75-.15-7.54,1.33-11.39,1.72a10.07,10.07,0,0,0-8.42,5.17c.59-14.3-.51-27.77-.74-41.48-.51.26-.91.32-1,.54-1.19,2.26-3.52.36-5,1.41-.1-1.3-.63-2.78-.2-3.87.54-1.34.14-2.5-.62-2.88-5-2.42-3.48-6.54-3.63-13.28,0-.67-.49-1.71-1-1-2.63,3.6-.8-4.72-2.22-9.41-1.52,3.68-.07,8.28-1.07,10.2-3.71,7.09,3.5,9-1.84,12.23-4.27,2.58-7.72-1-11.56-.45-.67.1-.87-.57-.88-1.16-.39-13.46-1.55,1.36-2.95-17.68-1.5,1.11-1,2.31-1.05,3.33-.19,14.83.85,15.73-2,15.86-6.49.29,2.14,10.44-8.62,7.78.08,5.11-.72,10.12-1.16,15.15-2,22.47,2.54,26.66-2.58,26.57-2.1,0-1.6,3.39-1.6,31.84-3.67.1-2.59-.61-2.66-22.32,0-4.6-2.23-.31-2.28-7,0-2,.78-4.57-2.83-5.49-1-.25-16.18-1.63-17.56-2-2.23-.68-4.34.95-6.62,1.23-9.1,1.13-22.31-.65-17.74,4.83.31.37,1.12.61.4,1.18-3.84,3-.2,9-1,11.49-.34,1.11-1.43,2.81-1.08,3.16,2.83,2.87,0,2.78.54,23.15,0,1.72.76,2.08-14,.77-7.05-.63-1.67-7.88-4.21-9.65-4.06-2.84-2.67-6.45-1.18-9.3,1.94-3.68-2.16-6-1.16-9.17,0-.08-.28-.36-.46-.4-4.47-1-4.36-4.12-4.26-7.81.43-16.52-.31-33.06.73-49.58.26-4.11-.24-4.77-4.43-4.5-5.79.38-4.49,2.92-3.5-61.83,0-2.51-.59-3.81-3.29-3.57-.74.07-2,.33-2.16-.39-1.77-6-9.79.14-9.24-5.95.71-7.79.7-45.61.71-46.28,0-5.34-4.29-.13-4-4.73.34-5.7-.85-11.25-1.59-16.94-.72.78.23,2.53-1.71,2.39a2.11,2.11,0,0,1-2-2.51c.19-3.57-.93-7-.74-10.58.08-1.56.89-19-1.88-21.81-.39,3.29-.33,6.53-.41,9.76-.16,6.61-2.79,12.92-2.35,19.59.18,2.78-.49,5.46-.71,8.18,0,.52.08,1.19-.72,1.25-2.86.23.28-7.68-3.12-15.48-2.63-6,.27-24.17-1.85-28.71-.82,6.71-1.75,13.67-1.65,20.44.1,6.49-1.72,12.89-1.31,19.43,0,.91,0,1.77-1.32,1.76-2.53,0-.46-3.36-1.82-5.34-2,.92-1.61,2.24-2.39,20.77C87.83,60,84.29,56,84.27,63.17c-.14,46.51,1.1,45-3.16,45.3-5.08.38-3.62-3.61-4.16,62.61,0,5.89,0,6-6,6.38-1.7.11-2.36.58-2.38,2.28-.93,82.34.4,79.62-3.66,79.06-6.29-.87-2.71,4.89-6.27,4.08-4.35-1-11,1.13-11.1-.75s-1.63-1.26-2.55-1.22c-1.34.06-1.26,1.41-1.35,2.31-.38,3.92,3,1.17,2.39,3.26-.47,1.73-4.7-.06-4.48,5.59.1,2.56-2.7,1.41-4,2.29-2.21,1.47-.9-5.33-.6-59.92,0-1.31.09-2.47-1.94-1.87-.94.29-2.1-.25-3.16-.23-.44,0-.94.82-1.34,0s0-1.22.53-1.73,2.22-.23,1.86-1.43c-1.19-3.89-10.12-.34-9-6.74,1.45-8.61-.27,4.72.67-36.23,0-.54,0-1.36-.33-1.58C21,162.62,21.38,158.87,20,156c-1.56-3.18-6-1.26-3.79-5,.41-.68-3.25-4.67-7.35-4.89-2.87-.15-5.73-.4-8.6-.6,0,260.08-1.39,240.53,2.62,240.53,1352.82-.22,1276.36,1.56,1276.36-2.77Q1279.11,278.07,1279.15,172.85Z"/><rect class="cls-1" y="365.01" width="1280" height="645.11"/></g></g></svg>