<svg xmlns="http://www.w3.org/2000/svg" xmlns:xlink="http://www.w3.org/1999/xlink" viewBox="0 0 342.32 321.09"><defs><style>.cls-1{fill:none;}.cls-2{clip-path:url(#clip-path);}.cls-3{fill:#6b6b6b;}.cls-4{fill:#ff6;}</style><clipPath id="clip-path" transform="translate(0 0)"><rect class="cls-1" width="342.32" height="321.09"/></clipPath></defs><title>hiw1</title><g id="Layer_2" data-name="Layer 2"><g id="Layer_1-2" data-name="Layer 1"><g class="cls-2"><path class="cls-3" d="M342.33,250.26h0c0,8.48-6.2,15.77-13.44,15.77H14C6.2,266,0,258.74,0,250.26V16.38C0,7.87,6.2,0,14,0H328.89c7.24,0,13.44,7.87,13.44,16.38ZM320.09,26.06H22.23V216.32H320.09Z" transform="translate(0 0)"/><path class="cls-4" d="M221.32,320.55c-4.65,1.21-47,0-50.17,0s-46,1.21-50.15,0c-4.65-.61,0-4.84,6.2-9.7a21.41,21.41,0,0,0,6.2-12.72l2.6-15.76h70.84l2.06,15.76a18.42,18.42,0,0,0,6.74,12.13c5.68,5.45,10.33,9.68,5.68,10.29" transform="translate(0 0)"/></g></g></g></svg>