<svg xmlns="http://www.w3.org/2000/svg" xmlns:xlink="http://www.w3.org/1999/xlink" viewBox="0 0 384.4 331.58"><defs><style>.cls-1{fill:none;}.cls-2{clip-path:url(#clip-path);}.cls-3{fill:#737370;}.cls-4{fill:#ff6;}.cls-5{fill:#fff;}</style><clipPath id="clip-path" transform="translate(0 0)"><rect class="cls-1" width="384.4" height="331.58"/></clipPath></defs><title>hiw2</title><g id="Layer_2" data-name="Layer 2"><g id="Layer_1-2" data-name="Layer 1"><g class="cls-2"><path class="cls-3" d="M0,126.8c33.14-34.52,69.2-33.34,110.5-26.19.58,1.19,1.15,1.79,1.74,3,23.84,42.27,47.1,85.14,71.52,127.4,19.2-35.13,36.65-65.48,66.88-118.47C290.77,105.37,335,86.32,384.4,41.07V261.93C206.45,411.35,93,257.17,0,331.58Z" transform="translate(0 0)"/><path class="cls-4" d="M183.76,207.77,125,103.59a75.57,75.57,0,0,1-8.74-34.53C116.3,31,146.56,0,183.76,0s67.46,31,67.46,69.06a67.11,67.11,0,0,1-9.87,35.72Z" transform="translate(0 0)"/><path class="cls-4" d="M348.35,166.1c9.3-6,18.61-13.7,28.5-21.43v18.45c-9.89,7.74-19.2,14.28-28.5,20.24Z" transform="translate(0 0)"/><path class="cls-4" d="M304.74,189.91a180.67,180.67,0,0,0,28.49-14.3v16.68c-9.88,5.35-19.19,10.12-28.49,13.69Z" transform="translate(0 0)"/><path class="cls-4" d="M261.12,204.19a253.19,253.19,0,0,0,28.49-7.74v15.48a247.24,247.24,0,0,1-28.49,7.14Z" transform="translate(0 0)"/><path class="cls-4" d="M218.09,208.37a225,225,0,0,0,27.91-1.8v14.88a229,229,0,0,1-28.49,1.78Z" transform="translate(0 0)"/><path class="cls-4" d="M130.85,196.45c9.3,1.78,18.61,3.57,28.49,6v14.88c-9.88-1.79-19.19-3-28.49-4.76Z" transform="translate(0 0)"/><path class="cls-4" d="M87.24,189.91a248.55,248.55,0,0,1,28.49,3.57v16.67c-9.89-1.19-19.2-2.38-28.49-3Z" transform="translate(0 0)"/><path class="cls-4" d="M43.62,194.07c9.29-3,18.61-4.16,28.49-4.75v17.86a156.83,156.83,0,0,0-28.49,4.76Z" transform="translate(0 0)"/><path class="cls-4" d="M4.07,219.67a113.8,113.8,0,0,1,24.42-19v17.26c-8.13,3.57-16.29,8.93-24.42,15.49Z" transform="translate(0 0)"/><path class="cls-5" d="M184.34,31c21.52,0,39,17.85,39,39.88,0,21.43-17.45,39.28-39,39.28C163.4,110.13,146,92.28,146,70.85,146,48.82,163.4,31,184.34,31" transform="translate(0 0)"/></g></g></g></svg>