<svg xmlns="http://www.w3.org/2000/svg" xmlns:xlink="http://www.w3.org/1999/xlink" viewBox="0 0 470 266.04"><defs><style>.cls-1,.cls-10,.cls-11,.cls-13,.cls-4,.cls-5,.cls-6,.cls-7,.cls-8{fill:none;}.cls-2{clip-path:url(#clip-path);}.cls-3{fill:#ff6;}.cls-4{stroke:#edf0f2;stroke-width:0.5px;}.cls-11,.cls-4,.cls-5,.cls-6,.cls-7,.cls-8{stroke-miterlimit:10;}.cls-10,.cls-11,.cls-13,.cls-5,.cls-6,.cls-7,.cls-8{stroke:#263338;}.cls-13,.cls-5,.cls-6,.cls-7,.cls-8{stroke-width:0.99px;}.cls-5{stroke-dasharray:1.97 0.97;}.cls-6{stroke-dasharray:1.88 0.88;}.cls-7{stroke-dasharray:2.05 1.05;}.cls-9{fill:#263338;}.cls-10,.cls-13{stroke-linecap:round;stroke-linejoin:round;}.cls-10,.cls-11{stroke-width:1.99px;}.cls-12{fill:#edf0f2;}</style><clipPath id="clip-path" transform="translate(0 -3.98)"><rect class="cls-1" width="470" height="270.01"/></clipPath></defs><title>hiw3</title><g id="Layer_2" data-name="Layer 2"><g id="Layer_1-2" data-name="Layer 1"><g class="cls-2"><path class="cls-3" d="M182.41,177.69c0,51-40.84,92.32-91.21,92.32S0,228.68,0,177.69,40.83,85.36,91.2,85.36s91.21,41.34,91.21,92.33" transform="translate(0 -3.98)"/><ellipse class="cls-4" cx="91.21" cy="173.71" rx="71.22" ry="72.1"/><path class="cls-3" d="M470,177.69c0,51-40.83,92.32-91.2,92.32s-91.2-41.33-91.2-92.32,40.83-92.33,91.2-92.33S470,126.7,470,177.69" transform="translate(0 -3.98)"/><ellipse class="cls-4" cx="378.8" cy="173.71" rx="71.21" ry="72.1"/><line class="cls-5" x1="210.57" y1="145.58" x2="95.52" y2="154.37"/><path class="cls-6" d="M79.69,161.9a18.7,18.7,0,0,0-7,9" transform="translate(0 -3.98)"/><path class="cls-6" d="M73.6,186.46a18.44,18.44,0,0,0,8,8.15" transform="translate(0 -3.98)"/><line class="cls-5" x1="97.94" y1="193.24" x2="212.99" y2="202.03"/><path class="cls-7" d="M230.55,205.34a28.43,28.43,0,0,0,18.39-20" transform="translate(0 -3.98)"/><path class="cls-7" d="M248.17,167.53A28.1,28.1,0,0,0,228,149.35" transform="translate(0 -3.98)"/><path class="cls-8" d="M225.44,148.92a25.56,25.56,0,0,0-5.11-.1l-4.91.37m34.07,33.6a30.4,30.4,0,0,0,0-10.19m-34.07,33.59,4.91.38a27.14,27.14,0,0,0,5.11-.1m-141.84-11a17.32,17.32,0,0,0,4.57,1l4.92.37M72.09,173a19.63,19.63,0,0,0,0,9.31m21-23.82-4.92.38a17.31,17.31,0,0,0-4.57,1" transform="translate(0 -3.98)"/><path class="cls-9" d="M91.2,193.55a15.86,15.86,0,1,1,15.67-15.86A15.77,15.77,0,0,1,91.2,193.55" transform="translate(0 -3.98)"/><path class="cls-9" d="M91.21,157.87a19.83,19.83,0,1,0,19.58,19.82,19.7,19.7,0,0,0-19.58-19.82m0,7.93a11.9,11.9,0,1,1-11.75,11.89A11.83,11.83,0,0,1,91.21,165.8" transform="translate(0 -3.98)"/><path class="cls-9" d="M378.8,193.55a15.86,15.86,0,1,1,15.66-15.86,15.78,15.78,0,0,1-15.66,15.86" transform="translate(0 -3.98)"/><path class="cls-9" d="M378.8,157.87a19.83,19.83,0,1,0,19.58,19.82,19.7,19.7,0,0,0-19.58-19.82m0,7.93a11.9,11.9,0,1,1-11.75,11.89A11.83,11.83,0,0,1,378.8,165.8" transform="translate(0 -3.98)"/></g><polygon class="cls-10" points="221.47 176.67 88.34 176.67 183.93 68.4 298.32 68.4 325.54 30.17 221.47 176.67"/><line class="cls-11" x1="155.58" y1="13.31" x2="223.82" y2="174.72"/><g class="cls-2"><path class="cls-10" d="M350.69,40.31s46.2-6.16,46.2-35.34l-77.05.1a7.66,7.66,0,0,0-7.23,10.49l67.95,165.09" transform="translate(0 -3.98)"/><path class="cls-12" d="M246.05,177.69a24.93,24.93,0,1,1-24.93-25.27,25.1,25.1,0,0,1,24.93,25.27" transform="translate(0 -3.98)"/><path class="cls-8" d="M246.05,177.69a24.93,24.93,0,1,1-24.93-25.27A25.1,25.1,0,0,1,246.05,177.69Z" transform="translate(0 -3.98)"/><path class="cls-9" d="M189.38,5.36h-58L148.3,52l42.39-28.71c4.69-3.18,3.62-17.95-1.31-17.95" transform="translate(0 -3.98)"/><path class="cls-10" d="M189.38,5.36h-58L148.3,52l42.39-28.71C195.38,20.13,194.31,5.36,189.38,5.36Z" transform="translate(0 -3.98)"/></g><line class="cls-13" x1="221.04" y1="172.23" x2="221.04" y2="222.28"/><line class="cls-10" x1="193.12" y1="222.89" x2="227.19" y2="222.89"/><g class="cls-2"><path class="cls-12" d="M390.55,177.69a11.75,11.75,0,1,1-11.75-11.9,11.82,11.82,0,0,1,11.75,11.9" transform="translate(0 -3.98)"/><path class="cls-12" d="M103,177.69a11.75,11.75,0,1,1-11.75-11.9A11.82,11.82,0,0,1,103,177.69" transform="translate(0 -3.98)"/></g></g></g></svg>